<svg width="1111" height="864" viewBox="0 0 1111 864" fill="none" xmlns="http://www.w3.org/2000/svg">
<rect x="48.0645" y="662.325" width="579.728" height="1029.41" rx="30" transform="rotate(-94.6213 48.0645 662.325)" fill="#FF6761"/>
<rect x="62.4199" y="645.445" width="548.391" height="911.897" rx="20" transform="rotate(-94.6213 62.4199 645.445)" fill="black"/>
<rect width="109.678" height="50.1387" rx="25.0693" transform="matrix(-0.0805694 -0.996749 -0.996749 0.0805694 1019.27 348.028)" fill="#9D4E4E"/>
<path d="M667.17 406.998C659.454 382.17 659.337 355.602 666.836 330.707V330.707C680.91 283.985 736.221 264.266 776.678 291.548V291.548C798.234 306.085 814.951 326.735 824.681 350.844L1034.56 870.897C1057.27 927.172 1028.57 991.036 971.411 1011.41V1011.41C914.25 1031.79 851.62 1000.49 833.61 942.537L667.17 406.998Z" fill="#FFB6A6"/>
<path d="M671.177 351.015C665.918 327.288 668.057 302.519 677.305 280.045L677.82 278.793C687.1 256.24 713.874 246.695 735.329 258.291L736.519 258.935C757.899 270.49 775.224 288.32 786.161 310.023L803.838 345.098C817.101 371.416 811.436 403.328 789.924 423.472V423.472C776.479 436.063 758.409 442.505 740.032 441.259V441.259C710.627 439.266 686.053 418.136 679.676 389.362L671.177 351.015Z" fill="#FF6761"/>
</svg>
