<svg width="2684" height="622" viewBox="0 0 2684 622" fill="none" xmlns="http://www.w3.org/2000/svg">
<g filter="url(#filter0_d_669_22527)">
<mask id="path-1-outside-1_669_22527" maskUnits="userSpaceOnUse" x="10" y="16.3936" width="2664" height="602" fill="black">
<rect fill="white" x="10" y="16.3936" width="2664" height="602"/>
<path fill-rule="evenodd" clip-rule="evenodd" d="M1073.9 26.3936H1131.91L1141.59 66.339C1143.59 66.2538 1145.61 66.2107 1147.64 66.2107C1225.16 66.2107 1288 129.052 1288 206.569C1288 263.096 1254.59 311.818 1206.43 334.06L1215.86 373H1736V223H2280V373H2464C2558.28 373 2605.42 373 2634.71 402.289C2664 431.579 2664 478.719 2664 573V608H20V573C20 478.719 20 431.579 49.2893 402.289C78.5786 373 125.719 373 220 373H633.63L626.246 195.781C626.213 194.993 626.843 194.336 627.632 194.336H776.584C777.373 194.336 778.003 194.993 777.97 195.781L770.586 373H927.899L999.393 77.8298L955.521 26.3936H1011.85H1073.9ZM1149.09 97.3291L1198.92 303.06C1233.41 284.692 1256.89 248.373 1256.89 206.569C1256.89 146.717 1208.76 98.1056 1149.09 97.3291Z"/>
</mask>
<path fill-rule="evenodd" clip-rule="evenodd" d="M1073.9 26.3936H1131.91L1141.59 66.339C1143.59 66.2538 1145.61 66.2107 1147.64 66.2107C1225.16 66.2107 1288 129.052 1288 206.569C1288 263.096 1254.59 311.818 1206.43 334.06L1215.86 373H1736V223H2280V373H2464C2558.28 373 2605.42 373 2634.71 402.289C2664 431.579 2664 478.719 2664 573V608H20V573C20 478.719 20 431.579 49.2893 402.289C78.5786 373 125.719 373 220 373H633.63L626.246 195.781C626.213 194.993 626.843 194.336 627.632 194.336H776.584C777.373 194.336 778.003 194.993 777.97 195.781L770.586 373H927.899L999.393 77.8298L955.521 26.3936H1011.85H1073.9ZM1149.09 97.3291L1198.92 303.06C1233.41 284.692 1256.89 248.373 1256.89 206.569C1256.89 146.717 1208.76 98.1056 1149.09 97.3291Z" fill="black"/>
<path d="M1131.91 26.3936L1141.63 24.0395L1139.78 16.3936H1131.91V26.3936ZM1141.59 66.339L1131.87 68.6931L1133.8 76.6785L1142.01 76.33L1141.59 66.339ZM1206.43 334.06L1202.24 324.982L1194.78 328.427L1196.71 336.414L1206.43 334.06ZM1215.86 373L1206.14 375.354L1208 383H1215.86V373ZM1736 373V383H1746V373H1736ZM1736 223V213H1726V223H1736ZM2280 223H2290V213H2280V223ZM2280 373H2270V383H2280V373ZM2634.71 402.289L2641.78 395.218V395.218L2634.71 402.289ZM2664 608V618H2674V608H2664ZM20 608H10V618H20V608ZM49.2893 402.289L42.2183 395.218H42.2183L49.2893 402.289ZM633.63 373V383H644.055L643.621 372.584L633.63 373ZM626.246 195.781L616.255 196.198V196.198L626.246 195.781ZM777.97 195.781L787.962 196.198V196.198L777.97 195.781ZM770.586 373L760.595 372.584L760.161 383H770.586V373ZM927.899 373V383H935.766L937.618 375.354L927.899 373ZM999.393 77.8298L1009.11 80.1839L1010.31 75.2235L1007 71.3403L999.393 77.8298ZM955.521 26.3936V16.3936H933.848L947.913 32.883L955.521 26.3936ZM1198.92 303.06L1189.2 305.414L1192.24 317.949L1203.62 311.887L1198.92 303.06ZM1149.09 97.3291L1149.22 87.33L1136.34 87.1623L1139.37 99.6832L1149.09 97.3291ZM1131.91 16.3936H1073.9V36.3936H1131.91V16.3936ZM1151.3 63.985L1141.63 24.0395L1122.19 28.7476L1131.87 68.6931L1151.3 63.985ZM1147.64 56.2107C1145.47 56.2107 1143.31 56.2568 1141.16 56.348L1142.01 76.33C1143.88 76.2508 1145.75 76.2107 1147.64 76.2107V56.2107ZM1298 206.569C1298 123.529 1230.68 56.2107 1147.64 56.2107V76.2107C1219.64 76.2107 1278 134.574 1278 206.569H1298ZM1210.62 343.138C1262.19 319.322 1298 267.138 1298 206.569H1278C1278 259.053 1246.98 304.314 1202.24 324.982L1210.62 343.138ZM1225.58 370.646L1216.15 331.706L1196.71 336.414L1206.14 375.354L1225.58 370.646ZM1736 363H1215.86V383H1736V363ZM1746 373V223H1726V373H1746ZM1736 233H2280V213H1736V233ZM2270 223V373H2290V223H2270ZM2464 363H2280V383H2464V363ZM2641.78 395.218C2624.97 378.406 2603.4 370.561 2575.06 366.75C2547.01 362.979 2510.86 363 2464 363V383C2511.42 383 2545.98 383.021 2572.39 386.572C2598.52 390.084 2615.16 396.883 2627.64 409.36L2641.78 395.218ZM2674 573C2674 526.142 2674.02 489.993 2670.25 461.94C2666.44 433.6 2658.59 412.031 2641.78 395.218L2627.64 409.36C2640.12 421.837 2646.92 438.483 2650.43 464.605C2653.98 491.015 2654 525.577 2654 573H2674ZM2674 608V573H2654V608H2674ZM20 618H2664V598H20V618ZM10 573V608H30V573H10ZM42.2183 395.218C25.4059 412.031 17.5606 433.6 13.7503 461.94C9.97876 489.993 10 526.142 10 573H30C30 525.577 30.0212 491.015 33.572 464.605C37.0841 438.483 43.8834 421.837 56.3604 409.36L42.2183 395.218ZM220 363C173.142 363 136.993 362.979 108.94 366.75C80.6001 370.561 59.0306 378.406 42.2183 395.218L56.3604 409.36C68.8374 396.883 85.4828 390.084 111.605 386.572C138.015 383.021 172.577 383 220 383V363ZM633.63 363H220V383H633.63V363ZM616.255 196.198L623.639 373.416L643.621 372.584L636.237 195.365L616.255 196.198ZM627.632 184.336C621.157 184.336 615.985 189.728 616.255 196.198L636.237 195.365C636.441 200.258 632.529 204.336 627.632 204.336V184.336ZM776.584 184.336H627.632V204.336H776.584V184.336ZM787.962 196.198C788.231 189.729 783.06 184.336 776.584 184.336V204.336C771.687 204.336 767.775 200.258 767.979 195.365L787.962 196.198ZM780.578 373.416L787.962 196.198L767.979 195.365L760.595 372.584L780.578 373.416ZM927.899 363H770.586V383H927.899V363ZM989.674 75.4757L918.18 370.646L937.618 375.354L1009.11 80.1839L989.674 75.4757ZM947.913 32.883L991.785 84.3193L1007 71.3403L963.13 19.9041L947.913 32.883ZM1011.85 16.3936H955.521V36.3936H1011.85V16.3936ZM1073.9 16.3936H1011.85V36.3936H1073.9V16.3936ZM1208.64 300.706L1158.81 94.9751L1139.37 99.6832L1189.2 305.414L1208.64 300.706ZM1246.89 206.569C1246.89 244.532 1225.58 277.533 1194.22 294.234L1203.62 311.887C1241.24 291.85 1266.89 252.213 1266.89 206.569H1246.89ZM1148.96 107.328C1203.17 108.034 1246.89 152.196 1246.89 206.569H1266.89C1266.89 141.237 1214.35 88.1775 1149.22 87.33L1148.96 107.328Z" fill="#FFF8F1" mask="url(#path-1-outside-1_669_22527)"/>
</g>
<defs>
<filter id="filter0_d_669_22527" x="0" y="0.393555" width="2684" height="621.606" filterUnits="userSpaceOnUse" color-interpolation-filters="sRGB">
<feFlood flood-opacity="0" result="BackgroundImageFix"/>
<feColorMatrix in="SourceAlpha" type="matrix" values="0 0 0 0 0 0 0 0 0 0 0 0 0 0 0 0 0 0 127 0" result="hardAlpha"/>
<feMorphology radius="10" operator="dilate" in="SourceAlpha" result="effect1_dropShadow_669_22527"/>
<feOffset dy="-6"/>
<feComposite in2="hardAlpha" operator="out"/>
<feColorMatrix type="matrix" values="0 0 0 0 0.988235 0 0 0 0 0.952941 0 0 0 0 0.917647 0 0 0 1 0"/>
<feBlend mode="normal" in2="BackgroundImageFix" result="effect1_dropShadow_669_22527"/>
<feBlend mode="normal" in="SourceGraphic" in2="effect1_dropShadow_669_22527" result="shape"/>
</filter>
</defs>
</svg>
