<svg width="535" height="666" viewBox="0 0 535 666" fill="none" xmlns="http://www.w3.org/2000/svg">
<g filter="url(#filter0_d_669_22528)">
<path fill-rule="evenodd" clip-rule="evenodd" d="M48.7993 26C33.4584 26 21.0221 38.4308 21.0221 53.7651V91.4777C21.0221 106.812 33.4584 119.243 48.7993 119.243H84.6247V432.822C70.7738 437.698 58.79 449.373 51.4877 465.593C25.8407 522.559 21.8144 589.494 21 651L513.187 650.465C511.339 587.188 505.512 529.279 483.077 470.045C476.576 452.879 465.053 440.135 451.399 434.128V119.243H487.223C502.564 119.243 515 106.812 515 91.4778V53.7651C515 38.4309 502.564 26 487.223 26H48.7993ZM412.845 119.243H415.357V430.296H346.723C347.238 428.621 347.515 426.842 347.515 424.999V419.829C347.515 316.097 369.801 213.593 412.845 119.243ZM344.131 119.243H318.69L308.44 163.456C293.55 227.684 286.032 293.399 286.032 359.329V424.999C286.032 426.842 285.755 428.621 285.241 430.296H312.265C311.751 428.621 311.474 426.842 311.474 424.999V359.328C311.474 293.399 318.991 227.685 333.881 163.457L344.131 119.243ZM217.333 119.243H191.892L202.142 163.457C217.032 227.685 224.549 293.399 224.549 359.328V424.999C224.549 426.842 224.272 428.621 223.758 430.296H250.783C250.268 428.621 249.991 426.842 249.991 424.999V359.329C249.991 293.399 242.473 227.684 227.583 163.456L217.333 119.243ZM120.667 119.243H123.178C166.222 213.593 188.508 316.097 188.508 419.829V424.999C188.508 426.842 188.785 428.621 189.3 430.296H120.667V119.243Z" fill="black"/>
<path d="M487.753 468.274C481.325 451.301 470.131 438.066 456.399 430.978V124.243H487.223C505.323 124.243 520 109.576 520 91.4778V53.7651C520 35.6674 505.323 21 487.223 21H48.7993C30.699 21 16.0221 35.6674 16.0221 53.7651V91.4777C16.0221 109.575 30.6991 124.243 48.7993 124.243H79.6247V429.414C65.7301 435.416 54.1159 447.575 46.9285 463.54C20.816 521.541 16.8151 589.412 16.0004 650.934L15.9333 656.005L21.0054 656L513.192 655.465L518.335 655.459L518.185 650.319C516.331 586.839 510.479 528.279 487.753 468.274ZM410.357 137.251V425.296H352.513C352.514 425.197 352.515 425.098 352.515 424.999V419.829C352.515 322.625 372.22 226.506 410.357 137.251ZM313.311 164.585L322.664 124.243H337.839L329.01 162.328C314.035 226.926 306.474 293.019 306.474 359.328V424.999C306.474 425.098 306.474 425.197 306.476 425.296H291.03C291.032 425.197 291.032 425.098 291.032 424.999V359.329C291.032 293.78 298.507 228.443 313.311 164.585ZM244.993 425.296H229.547C229.549 425.197 229.549 425.098 229.549 424.999V359.328C229.549 293.019 221.988 226.926 207.013 162.328L198.184 124.243H213.359L222.712 164.585C237.516 228.443 244.991 293.78 244.991 359.329V424.999C244.991 425.098 244.991 425.197 244.993 425.296ZM183.508 424.999C183.508 425.098 183.509 425.197 183.51 425.296H125.667V137.252C163.803 226.507 183.508 322.625 183.508 419.829V424.999Z" stroke="#FFF8F1" stroke-width="10"/>
</g>
<defs>
<filter id="filter0_d_669_22528" x="0.866577" y="0" width="534.133" height="665.011" filterUnits="userSpaceOnUse" color-interpolation-filters="sRGB">
<feFlood flood-opacity="0" result="BackgroundImageFix"/>
<feColorMatrix in="SourceAlpha" type="matrix" values="0 0 0 0 0 0 0 0 0 0 0 0 0 0 0 0 0 0 127 0" result="hardAlpha"/>
<feMorphology radius="10" operator="dilate" in="SourceAlpha" result="effect1_dropShadow_669_22528"/>
<feOffset dy="-6"/>
<feComposite in2="hardAlpha" operator="out"/>
<feColorMatrix type="matrix" values="0 0 0 0 0.988235 0 0 0 0 0.952941 0 0 0 0 0.917647 0 0 0 1 0"/>
<feBlend mode="normal" in2="BackgroundImageFix" result="effect1_dropShadow_669_22528"/>
<feBlend mode="normal" in="SourceGraphic" in2="effect1_dropShadow_669_22528" result="shape"/>
</filter>
</defs>
</svg>
