<svg width="2385" height="1472" viewBox="0 0 2385 1472" fill="none" xmlns="http://www.w3.org/2000/svg">
<g filter="url(#filter0_d_669_22529)">
<path fill-rule="evenodd" clip-rule="evenodd" d="M1629.56 252.367C1629.72 251.695 1629.83 251.004 1629.89 250.298C1630.61 242.05 1624.51 234.779 1616.26 234.058C1608.01 233.336 1600.74 239.437 1600.02 247.685C1599.96 248.391 1599.95 249.091 1599.98 249.779C1597.87 248.262 1595.34 247.275 1592.56 247.031C1584.31 246.31 1577.04 252.411 1576.32 260.658C1576.07 263.438 1576.6 266.106 1577.73 268.451C1577.06 268.296 1576.37 268.186 1575.66 268.125C1567.42 267.403 1560.15 273.504 1559.42 281.751L1559.42 281.803L1559.41 281.866L1556.32 317.218L1546.37 316.347C1543.62 316.106 1541.19 318.141 1540.95 320.892L1540.35 327.73C1540.11 330.481 1542.15 332.906 1544.9 333.147L1554.85 334.017L1552.89 356.417L1542.94 355.546C1540.19 355.306 1537.76 357.341 1537.52 360.092L1536.92 366.929C1536.68 369.68 1538.72 372.105 1541.47 372.346L1551.42 373.217L1549.46 395.617L1539.51 394.746C1536.76 394.505 1534.33 396.54 1534.09 399.291L1533.5 406.129C1533.25 408.88 1535.29 411.305 1538.04 411.546L1547.99 412.416L1544.73 449.749L1563.85 482.158L1517.13 915.686L1516.93 917.925C1429.73 920.788 1360.74 961.78 1353.6 1043.39C1350.74 1076.06 1358.18 1110.91 1373.54 1142.8C1380.62 1157.49 1377.09 1175.6 1364.69 1186.19C1332.75 1213.45 1306.82 1247.79 1290 1284.72V1244C1290 1188.77 1245.23 1144 1190 1144H560C504.772 1144 460 1188.77 460 1244V1280H120C64.7715 1280 20 1324.77 20 1380V1458H2365C2365 1294.52 2325.98 1288 2162.5 1288H1740.7C1729.85 1262.05 1714.98 1237.28 1696.81 1215.24C1686.44 1202.66 1686.11 1184.22 1695.63 1170.98C1716.3 1142.24 1729.67 1109.21 1732.53 1076.54C1739.62 995.521 1679.72 943.341 1595.31 925.015L1595.53 922.545L1624.8 487.49L1649.26 458.894L1652.52 421.562L1662.48 422.432C1665.23 422.673 1667.65 420.638 1667.89 417.887L1668.49 411.049C1668.73 408.298 1666.7 405.873 1663.95 405.633L1653.99 404.762L1655.95 382.362L1665.91 383.233C1668.66 383.474 1671.08 381.439 1671.32 378.688L1671.92 371.85C1672.16 369.099 1670.13 366.674 1667.38 366.433L1657.42 365.562L1659.38 343.163L1669.34 344.033C1672.09 344.274 1674.51 342.239 1674.75 339.488L1675.35 332.65C1675.59 329.899 1673.56 327.474 1670.81 327.234L1660.85 326.363L1663.96 290.897C1664.68 282.649 1658.58 275.379 1650.33 274.657C1649.62 274.595 1648.92 274.583 1648.23 274.619C1649.75 272.506 1650.74 269.97 1650.98 267.19C1651.7 258.943 1645.6 251.672 1637.36 250.951C1634.58 250.708 1631.91 251.239 1629.56 252.367ZM1609.91 455.451L1626.86 456.935L1639.43 313.203L1626.53 312.074L1615.74 379.784L1609.91 455.451ZM1584.08 453.192L1591.47 377.661L1592.61 309.106L1579.7 307.977L1567.13 451.709L1584.08 453.192Z" fill="black"/>
<path d="M1654.24 459.33L1657.07 426.978L1662.04 427.413C1667.54 427.895 1672.39 423.825 1672.87 418.323L1673.47 411.485C1673.95 405.983 1669.88 401.133 1664.38 400.652L1659.41 400.217L1660.5 387.779L1665.47 388.214C1670.97 388.695 1675.82 384.625 1676.3 379.124L1676.9 372.286C1677.38 366.784 1673.31 361.933 1667.81 361.452L1662.84 361.017L1663.93 348.579L1668.9 349.014C1674.4 349.496 1679.25 345.426 1679.73 339.924L1680.33 333.086C1680.81 327.584 1676.74 322.734 1671.24 322.253L1666.27 321.818L1668.94 291.332C1669.76 281.97 1663.98 273.552 1655.46 270.661C1655.7 269.677 1655.87 268.664 1655.96 267.626C1656.93 256.628 1648.79 246.932 1637.79 245.97C1636.75 245.879 1635.73 245.87 1634.72 245.936C1633.35 237.044 1626.06 229.896 1616.7 229.077C1607.34 228.258 1598.92 234.031 1596.03 242.551C1595.04 242.31 1594.03 242.141 1592.99 242.05C1581.99 241.088 1572.3 249.224 1571.34 260.222C1571.24 261.26 1571.24 262.287 1571.3 263.298C1562.41 264.666 1555.26 271.953 1554.44 281.316L1554.44 281.319L1554.44 281.371L1554.44 281.382L1554.44 281.394L1554.43 281.43L1554.43 281.457L1551.78 311.801L1546.81 311.366C1541.3 310.884 1536.45 314.954 1535.97 320.456L1535.37 327.294C1534.89 332.796 1538.96 337.646 1544.46 338.128L1549.44 338.562L1548.35 351L1543.38 350.565C1537.87 350.084 1533.02 354.154 1532.54 359.656L1531.94 366.494C1531.46 371.995 1535.53 376.846 1541.03 377.327L1546.01 377.762L1544.92 390.2L1539.95 389.765C1534.44 389.283 1529.59 393.353 1529.11 398.855L1528.51 405.693C1528.03 411.195 1532.1 416.045 1537.6 416.527L1542.58 416.961L1539.75 449.313L1539.61 450.91L1540.42 452.29L1558.7 483.271L1512.38 913.104C1469.84 915.132 1431.4 926.235 1402.33 947.063C1372.13 968.704 1352.32 1000.67 1348.62 1042.95C1345.67 1076.66 1353.34 1112.4 1369.03 1144.97C1375.16 1157.69 1372.06 1173.32 1361.44 1182.38C1334.5 1205.39 1311.75 1233.34 1295 1263.67V1244C1295 1186.01 1247.99 1139 1190 1139H560C502.01 1139 455 1186.01 455 1244V1275H120C62.0101 1275 15 1322.01 15 1380V1458V1463H20H2365H2370V1458C2370 1417.02 2367.56 1385.44 2361.18 1361.2C2354.77 1336.82 2344.27 1319.55 2328 1307.66C2311.89 1295.88 2290.68 1289.81 2263.7 1286.61C2236.71 1283.4 2203.32 1283 2162.5 1283H1744C1733.1 1257.72 1718.44 1233.6 1700.67 1212.06C1691.79 1201.29 1691.45 1185.36 1699.69 1173.9C1720.8 1144.55 1734.56 1110.68 1737.51 1076.98C1741.18 1035 1727.46 1000.28 1701.83 973.791C1677.16 948.301 1641.7 930.643 1600.64 921.088L1629.68 489.48L1653.06 462.144L1654.1 460.926L1654.24 459.33ZM1634.02 317.749L1622.31 451.518L1615.27 450.902L1620.71 380.371L1630.73 317.461L1634.02 317.749ZM1587.53 313.681L1586.48 377.376L1579.59 447.78L1572.54 447.164L1584.25 313.394L1587.53 313.681Z" stroke="#FFF8F1" stroke-width="10"/>
</g>
<defs>
<filter id="filter0_d_669_22529" x="0" y="208" width="2385" height="1264" filterUnits="userSpaceOnUse" color-interpolation-filters="sRGB">
<feFlood flood-opacity="0" result="BackgroundImageFix"/>
<feColorMatrix in="SourceAlpha" type="matrix" values="0 0 0 0 0 0 0 0 0 0 0 0 0 0 0 0 0 0 127 0" result="hardAlpha"/>
<feMorphology radius="10" operator="dilate" in="SourceAlpha" result="effect1_dropShadow_669_22529"/>
<feOffset dy="-6"/>
<feComposite in2="hardAlpha" operator="out"/>
<feColorMatrix type="matrix" values="0 0 0 0 0.988235 0 0 0 0 0.952941 0 0 0 0 0.917647 0 0 0 1 0"/>
<feBlend mode="normal" in2="BackgroundImageFix" result="effect1_dropShadow_669_22529"/>
<feBlend mode="normal" in="SourceGraphic" in2="effect1_dropShadow_669_22529" result="shape"/>
</filter>
</defs>
</svg>
