<svg width="2402" height="665" viewBox="0 0 2402 665" fill="none" xmlns="http://www.w3.org/2000/svg">
<g filter="url(#filter0_d_669_22533)">
<mask id="path-1-outside-1_669_22533" maskUnits="userSpaceOnUse" x="9.2627" y="16" width="2382" height="645" fill="black">
<rect fill="white" x="9.2627" y="16" width="2382" height="645"/>
<path fill-rule="evenodd" clip-rule="evenodd" d="M924 36C924 30.4772 919.523 26 914 26H872C866.477 26 862 30.4772 862 36V124.887C828.657 137.655 805 169.792 805 207.418V363.863H533.657C434.246 363.863 353.657 444.452 353.657 543.863V651H2381.26V543.863C2381.26 444.452 2300.67 363.863 2201.26 363.863H1993.97C2000.57 344.492 2001.59 322.853 1995.33 301.2L1981.98 255H1929.17C1923.26 226.203 1897.77 204.546 1867.22 204.546C1844.64 204.546 1824.82 216.384 1813.63 234.194C1814.6 203.796 1800.74 169.663 1780.22 149.151C1774.01 142.936 1771.11 131.423 1768.12 119.541C1763.22 100.093 1758.08 79.6553 1737.74 79.8367C1717.26 80.0193 1711.96 100.861 1707.01 120.331C1704.03 132.022 1701.18 143.219 1695.25 149.151C1686.21 158.19 1678.47 169.873 1672.71 182.717C1651.04 149.64 1613.52 132.561 1578.8 143.244C1536.49 156.261 1513.92 205.701 1527.01 255H1467.02L1453.67 301.2C1447.41 322.853 1448.43 344.492 1455.03 363.863H1077V304.705C1092.61 285.545 1118.71 249.056 1120 218C1120.36 209.361 1118.93 197.813 1117.78 190.152C1117.06 185.406 1112.94 182 1108.14 182H1022.86C1018.06 182 1013.94 185.406 1013.23 190.152C1012.07 197.813 1010.64 209.361 1011 218C1012.29 249.055 1038.39 285.544 1054 304.705V363.863H983V207.418C983 169.044 958.393 136.38 924 124.149V36ZM115.909 164.952C215.32 164.952 295.909 245.541 295.909 344.952V651H20.0002V234.952C20.0002 196.292 51.3403 164.952 90.0002 164.952H115.909Z"/>
</mask>
<path fill-rule="evenodd" clip-rule="evenodd" d="M924 36C924 30.4772 919.523 26 914 26H872C866.477 26 862 30.4772 862 36V124.887C828.657 137.655 805 169.792 805 207.418V363.863H533.657C434.246 363.863 353.657 444.452 353.657 543.863V651H2381.26V543.863C2381.26 444.452 2300.67 363.863 2201.26 363.863H1993.97C2000.57 344.492 2001.59 322.853 1995.33 301.2L1981.98 255H1929.17C1923.26 226.203 1897.77 204.546 1867.22 204.546C1844.64 204.546 1824.82 216.384 1813.63 234.194C1814.6 203.796 1800.74 169.663 1780.22 149.151C1774.01 142.936 1771.11 131.423 1768.12 119.541C1763.22 100.093 1758.08 79.6553 1737.74 79.8367C1717.26 80.0193 1711.96 100.861 1707.01 120.331C1704.03 132.022 1701.18 143.219 1695.25 149.151C1686.21 158.19 1678.47 169.873 1672.71 182.717C1651.04 149.64 1613.52 132.561 1578.8 143.244C1536.49 156.261 1513.92 205.701 1527.01 255H1467.02L1453.67 301.2C1447.41 322.853 1448.43 344.492 1455.03 363.863H1077V304.705C1092.61 285.545 1118.71 249.056 1120 218C1120.36 209.361 1118.93 197.813 1117.78 190.152C1117.06 185.406 1112.94 182 1108.14 182H1022.86C1018.06 182 1013.94 185.406 1013.23 190.152C1012.07 197.813 1010.64 209.361 1011 218C1012.29 249.055 1038.39 285.544 1054 304.705V363.863H983V207.418C983 169.044 958.393 136.38 924 124.149V36ZM115.909 164.952C215.32 164.952 295.909 245.541 295.909 344.952V651H20.0002V234.952C20.0002 196.292 51.3403 164.952 90.0002 164.952H115.909Z" fill="black"/>
<path d="M862 124.887H872V131.766L865.576 134.226L862 124.887ZM805 363.863H815V373.863H805V363.863ZM353.657 651V661H343.657V651H353.657ZM2381.26 651H2391.26V661H2381.26V651ZM1993.97 363.863V373.863H1980L1984.51 360.637L1993.97 363.863ZM1995.33 301.2L2004.94 298.423L1995.33 301.2ZM1981.98 255V245H1989.5L1991.59 252.224L1981.98 255ZM1929.17 255V265H1921.02L1919.38 257.012L1929.17 255ZM1813.63 234.194L1822.1 239.513L1802.46 270.77L1803.64 233.876L1813.63 234.194ZM1780.22 149.151L1773.15 156.222L1773.15 156.222L1780.22 149.151ZM1768.12 119.541L1758.42 121.982V121.982L1768.12 119.541ZM1737.74 79.8367L1737.65 69.8371L1737.74 79.8367ZM1707.01 120.331L1716.7 122.796V122.796L1707.01 120.331ZM1695.25 149.151L1702.32 156.222L1702.32 156.222L1695.25 149.151ZM1672.71 182.717L1681.84 186.807L1674.36 203.484L1664.35 188.197L1672.71 182.717ZM1578.8 143.244L1575.86 133.686L1578.8 143.244ZM1527.01 255L1536.68 252.432L1540.02 265H1527.01V255ZM1467.02 255L1457.41 252.224L1459.5 245H1467.02V255ZM1453.67 301.2L1463.27 303.976L1453.67 301.2ZM1455.03 363.863L1464.49 360.637L1469 373.863H1455.03V363.863ZM1077 363.863V373.863H1067V363.863H1077ZM1077 304.705H1067V301.148L1069.25 298.39L1077 304.705ZM1120 218L1110.01 217.586V217.586L1120 218ZM1117.78 190.152L1107.89 191.648V191.648L1117.78 190.152ZM1013.23 190.152L1003.34 188.656L1003.34 188.656L1013.23 190.152ZM1011 218L1020.99 217.586V217.586L1011 218ZM1054 304.705L1061.75 298.389L1064 301.147V304.705H1054ZM1054 363.863H1064V373.863H1054V363.863ZM983 363.863V373.863H973V363.863H983ZM924 124.149L920.649 133.571L914 131.206V124.149H924ZM295.909 651H305.909V661H295.909V651ZM20.0002 651V661H10.0002V651H20.0002ZM914 16C925.046 16 934 24.9543 934 36H914V36V16ZM872 16H914V36H872V16ZM852 36C852 24.9543 860.954 16 872 16V36H852ZM852 124.887V36H872V124.887H852ZM795 207.418C795 165.481 821.371 129.737 858.424 115.549L865.576 134.226C835.943 145.574 815 174.103 815 207.418H795ZM795 363.863V207.418H815V363.863H795ZM533.657 353.863H805V373.863H533.657V353.863ZM343.657 543.863C343.657 438.929 428.723 353.863 533.657 353.863V373.863C439.768 373.863 363.657 449.974 363.657 543.863H343.657ZM343.657 651V543.863H363.657V651H343.657ZM2381.26 661H353.657V641H2381.26V661ZM2391.26 543.863V651H2371.26V543.863H2391.26ZM2201.26 353.863C2306.2 353.863 2391.26 438.929 2391.26 543.863H2371.26C2371.26 449.974 2295.15 373.863 2201.26 373.863V353.863ZM1993.97 353.863H2201.26V373.863H1993.97V353.863ZM2004.94 298.423C2011.79 322.107 2010.68 345.842 2003.44 367.089L1984.51 360.637C1990.47 343.143 1991.4 323.599 1985.73 303.976L2004.94 298.423ZM1991.59 252.224L2004.94 298.423L1985.73 303.976L1972.38 257.776L1991.59 252.224ZM1929.17 245H1981.98V265H1929.17V245ZM1867.22 194.546C1902.61 194.546 1932.12 219.634 1938.97 252.988L1919.38 257.012C1914.4 232.772 1892.93 214.546 1867.22 214.546V194.546ZM1805.16 228.874C1818.1 208.275 1841.06 194.546 1867.22 194.546V214.546C1848.22 214.546 1831.53 224.494 1822.1 239.513L1805.16 228.874ZM1787.29 142.08C1809.75 164.537 1824.68 201.341 1823.63 234.512L1803.64 233.876C1804.51 206.251 1791.72 174.789 1773.15 156.222L1787.29 142.08ZM1777.82 117.1C1779.34 123.163 1780.69 128.481 1782.36 133.044C1784.05 137.673 1785.71 140.497 1787.29 142.08L1773.15 156.222C1768.52 151.59 1765.63 145.55 1763.57 139.899C1761.48 134.181 1759.89 127.801 1758.42 121.982L1777.82 117.1ZM1737.65 69.8371C1744.52 69.7758 1750.59 71.4855 1755.78 74.8133C1760.87 78.0784 1764.56 82.5527 1767.33 87.2419C1772.65 96.2554 1775.47 107.783 1777.82 117.1L1758.42 121.982C1755.87 111.851 1753.67 103.436 1750.11 97.4139C1748.44 94.5853 1746.73 92.7687 1744.98 91.645C1743.32 90.5839 1741.13 89.8069 1737.83 89.8363L1737.65 69.8371ZM1697.32 117.865C1699.69 108.519 1702.56 96.9219 1707.93 87.7857C1713.72 77.9229 1723.03 69.9675 1737.65 69.8371L1737.83 89.8363C1731.97 89.8885 1728.39 92.4451 1725.18 97.9162C1721.53 104.114 1719.28 112.672 1716.7 122.796L1697.32 117.865ZM1688.18 142.08C1689.61 140.649 1691.2 137.99 1692.85 133.472C1694.46 129.035 1695.8 123.833 1697.32 117.865L1716.7 122.796C1715.24 128.52 1713.67 134.762 1711.63 140.329C1709.63 145.815 1706.83 151.72 1702.32 156.222L1688.18 142.08ZM1663.58 178.627C1669.76 164.846 1678.16 152.104 1688.18 142.08L1702.32 156.222C1694.27 164.276 1687.17 174.901 1681.84 186.807L1663.58 178.627ZM1575.86 133.686C1615.75 121.411 1657.54 141.308 1681.07 177.237L1664.35 188.197C1644.54 157.973 1611.28 143.712 1581.74 152.802L1575.86 133.686ZM1517.35 257.568C1503.24 204.452 1527.16 148.67 1575.86 133.686L1581.74 152.802C1545.83 163.851 1524.6 206.951 1536.68 252.432L1517.35 257.568ZM1467.02 245H1527.01V265H1467.02V245ZM1444.06 298.423L1457.41 252.224L1476.62 257.776L1463.27 303.976L1444.06 298.423ZM1445.56 367.089C1438.32 345.842 1437.21 322.108 1444.06 298.423L1463.27 303.976C1457.6 323.599 1458.53 343.143 1464.49 360.637L1445.56 367.089ZM1077 353.863H1455.03V373.863H1077V353.863ZM1087 304.705V363.863H1067V304.705H1087ZM1129.99 218.414C1129.25 236.282 1121.5 254.816 1112.59 270.706C1103.57 286.791 1092.76 301.196 1084.75 311.021L1069.25 298.39C1076.85 289.054 1086.89 275.635 1095.15 260.921C1103.51 246.013 1109.46 230.773 1110.01 217.586L1129.99 218.414ZM1127.66 188.656C1128.83 196.346 1130.39 208.729 1129.99 218.414L1110.01 217.586C1110.32 209.993 1109.04 199.28 1107.89 191.648L1127.66 188.656ZM1108.14 172C1117.68 172 1126.17 178.822 1127.66 188.656L1107.89 191.648C1107.89 191.693 1107.91 191.759 1107.95 191.825C1107.99 191.886 1108.03 191.927 1108.05 191.952C1108.11 192.001 1108.15 192 1108.14 192V172ZM1022.86 172H1108.14V192H1022.86V172ZM1003.34 188.656C1004.83 178.822 1013.32 172 1022.86 172V192C1022.85 192 1022.89 192.001 1022.95 191.952C1022.98 191.927 1023.01 191.887 1023.05 191.825C1023.09 191.76 1023.11 191.694 1023.11 191.648L1003.34 188.656ZM1001.01 218.414C1000.61 208.729 1002.17 196.346 1003.34 188.656L1023.11 191.648C1021.96 199.28 1020.68 209.993 1020.99 217.586L1001.01 218.414ZM1046.25 311.02C1038.24 301.195 1027.43 286.79 1018.41 270.705C1009.5 254.815 1001.75 236.282 1001.01 218.414L1020.99 217.586C1021.54 230.773 1027.49 246.012 1035.85 260.921C1044.11 275.634 1054.15 289.054 1061.75 298.389L1046.25 311.02ZM1044 363.863V304.705H1064V363.863H1044ZM983 353.863H1054V373.863H983V353.863ZM993 207.418V363.863H973V207.418H993ZM927.351 114.727C965.572 128.319 993 164.647 993 207.418H973C973 173.441 951.214 144.44 920.649 133.571L927.351 114.727ZM934 36V124.149H914V36H934ZM285.909 344.952C285.909 251.064 209.797 174.952 115.909 174.952V154.952C220.843 154.952 305.909 240.018 305.909 344.952H285.909ZM285.909 651V344.952H305.909V651H285.909ZM20.0002 641H295.909V661H20.0002V641ZM30.0002 234.952V651H10.0002V234.952H30.0002ZM90.0002 174.952C56.863 174.952 30.0002 201.815 30.0002 234.952H10.0002C10.0002 190.769 45.8174 154.952 90.0002 154.952V174.952ZM115.909 174.952H90.0002V154.952H115.909V174.952Z" fill="#FFF8F1" mask="url(#path-1-outside-1_669_22533)"/>
</g>
<defs>
<filter id="filter0_d_669_22533" x="0" y="0" width="2401.26" height="665" filterUnits="userSpaceOnUse" color-interpolation-filters="sRGB">
<feFlood flood-opacity="0" result="BackgroundImageFix"/>
<feColorMatrix in="SourceAlpha" type="matrix" values="0 0 0 0 0 0 0 0 0 0 0 0 0 0 0 0 0 0 127 0" result="hardAlpha"/>
<feMorphology radius="10" operator="dilate" in="SourceAlpha" result="effect1_dropShadow_669_22533"/>
<feOffset dy="-6"/>
<feComposite in2="hardAlpha" operator="out"/>
<feColorMatrix type="matrix" values="0 0 0 0 0.988235 0 0 0 0 0.952941 0 0 0 0 0.917647 0 0 0 1 0"/>
<feBlend mode="normal" in2="BackgroundImageFix" result="effect1_dropShadow_669_22533"/>
<feBlend mode="normal" in="SourceGraphic" in2="effect1_dropShadow_669_22533" result="shape"/>
</filter>
</defs>
</svg>
