<svg width="2006" height="993" viewBox="0 0 2006 993" fill="none" xmlns="http://www.w3.org/2000/svg">
<g filter="url(#filter0_d_669_22534)">
<mask id="path-1-outside-1_669_22534" maskUnits="userSpaceOnUse" x="10.2627" y="16" width="1986" height="973" fill="black">
<rect fill="white" x="10.2627" y="16" width="1986" height="973"/>
<path fill-rule="evenodd" clip-rule="evenodd" d="M429.59 502.442C429.59 239.31 642.9 26 906.032 26C1125.16 26 1309.74 173.932 1365.34 375.376C1383.54 356.385 1409.16 344.561 1437.55 344.561H1885.26C1940.49 344.561 1985.26 389.332 1985.26 444.561V870.426C1985.26 925.655 1940.49 970.426 1885.26 970.426L1661.4 970.427H995.868C966.774 975.978 936.742 978.884 906.032 978.884C860.832 978.884 817.103 972.589 775.672 960.83V978.869H20.2627V894.588C20.2627 685.988 189.367 516.884 397.967 516.884C408.704 516.884 419.336 517.332 429.846 518.21C429.676 512.975 429.59 507.718 429.59 502.442ZM664.792 627.258C629.748 592.28 587.868 564.149 541.33 545.041C539.715 531.065 538.885 516.85 538.885 502.441C538.885 468.981 543.361 436.567 551.747 405.764L890.989 496.663L664.792 627.258ZM772.38 844.504C762.129 767.127 728.454 697.145 678.715 641.915L900.816 513.685L850.011 703.292C849.52 704.947 849.072 706.62 848.666 708.311L808.929 856.611C796.469 853.203 784.274 849.154 772.38 844.504ZM845.906 794.55L828.025 861.285C833.933 862.563 839.895 863.699 845.906 864.69V794.55ZM1249.77 631.741H1007.72L936.822 508.944L1261.19 595.859C1257.98 608.08 1254.16 620.052 1249.77 631.741ZM985.023 631.741H945.906C922.402 631.741 900.792 639.85 883.721 653.422L919.801 518.772L985.023 631.741ZM743.068 173.352C792.17 148.989 847.502 135.293 906.033 135.293C938.16 135.293 969.324 139.42 999.023 147.172L913.097 467.851L743.068 173.352ZM1217.59 308.102C1171.97 235.134 1101.44 179.343 1017.9 152.648L932.082 472.938L1217.59 308.102ZM1227.56 325.042L941.909 489.96L1265.67 576.71C1270.59 552.724 1273.18 527.885 1273.18 502.441C1273.18 438.101 1256.63 377.626 1227.56 325.042ZM557.422 386.937C586.295 299.748 646.964 227.044 725.691 182.563L896.076 477.679L557.422 386.937Z"/>
</mask>
<path fill-rule="evenodd" clip-rule="evenodd" d="M429.59 502.442C429.59 239.31 642.9 26 906.032 26C1125.16 26 1309.74 173.932 1365.34 375.376C1383.54 356.385 1409.16 344.561 1437.55 344.561H1885.26C1940.49 344.561 1985.26 389.332 1985.26 444.561V870.426C1985.26 925.655 1940.49 970.426 1885.26 970.426L1661.4 970.427H995.868C966.774 975.978 936.742 978.884 906.032 978.884C860.832 978.884 817.103 972.589 775.672 960.83V978.869H20.2627V894.588C20.2627 685.988 189.367 516.884 397.967 516.884C408.704 516.884 419.336 517.332 429.846 518.21C429.676 512.975 429.59 507.718 429.59 502.442ZM664.792 627.258C629.748 592.28 587.868 564.149 541.33 545.041C539.715 531.065 538.885 516.85 538.885 502.441C538.885 468.981 543.361 436.567 551.747 405.764L890.989 496.663L664.792 627.258ZM772.38 844.504C762.129 767.127 728.454 697.145 678.715 641.915L900.816 513.685L850.011 703.292C849.52 704.947 849.072 706.62 848.666 708.311L808.929 856.611C796.469 853.203 784.274 849.154 772.38 844.504ZM845.906 794.55L828.025 861.285C833.933 862.563 839.895 863.699 845.906 864.69V794.55ZM1249.77 631.741H1007.72L936.822 508.944L1261.19 595.859C1257.98 608.08 1254.16 620.052 1249.77 631.741ZM985.023 631.741H945.906C922.402 631.741 900.792 639.85 883.721 653.422L919.801 518.772L985.023 631.741ZM743.068 173.352C792.17 148.989 847.502 135.293 906.033 135.293C938.16 135.293 969.324 139.42 999.023 147.172L913.097 467.851L743.068 173.352ZM1217.59 308.102C1171.97 235.134 1101.44 179.343 1017.9 152.648L932.082 472.938L1217.59 308.102ZM1227.56 325.042L941.909 489.96L1265.67 576.71C1270.59 552.724 1273.18 527.885 1273.18 502.441C1273.18 438.101 1256.63 377.626 1227.56 325.042ZM557.422 386.937C586.295 299.748 646.964 227.044 725.691 182.563L896.076 477.679L557.422 386.937Z" fill="black"/>
<path d="M1365.34 375.376L1355.7 378.037L1360.38 395L1372.56 382.296L1365.34 375.376ZM1885.26 970.426V960.426V970.426ZM1661.4 970.427V980.427V970.427ZM995.868 970.427V960.427H994.922L993.993 960.604L995.868 970.427ZM775.672 960.83L778.402 951.21L765.672 947.596V960.83H775.672ZM775.672 978.869V988.869H785.672V978.869H775.672ZM20.2627 978.869H10.2627V988.869H20.2627V978.869ZM429.846 518.21L429.013 528.175L440.206 529.11L439.841 517.885L429.846 518.21ZM664.792 627.258L657.728 634.336L663.153 639.751L669.792 635.918L664.792 627.258ZM541.33 545.041L531.396 546.189L532.073 552.051L537.532 554.292L541.33 545.041ZM551.747 405.764L554.335 396.105L544.714 393.527L542.098 403.137L551.747 405.764ZM890.989 496.663L895.989 505.324L916.896 493.253L893.577 487.004L890.989 496.663ZM772.38 844.504L762.467 845.817L763.242 851.668L768.739 853.817L772.38 844.504ZM678.715 641.915L673.715 633.254L663.019 639.43L671.284 648.607L678.715 641.915ZM900.816 513.685L910.475 516.273L916.724 492.953L895.816 505.024L900.816 513.685ZM850.011 703.292L859.599 706.132L859.636 706.006L859.67 705.88L850.011 703.292ZM848.666 708.311L858.325 710.899L858.359 710.772L858.39 710.645L848.666 708.311ZM808.929 856.611L806.291 866.256L815.987 868.909L818.588 859.199L808.929 856.611ZM828.025 861.285L818.365 858.696L815.648 868.838L825.91 871.058L828.025 861.285ZM845.906 794.55H855.906L836.247 791.962L845.906 794.55ZM845.906 864.69L844.28 874.557L855.906 876.472V864.69H845.906ZM1007.72 631.741L999.058 636.741L1001.95 641.741H1007.72V631.741ZM1249.77 631.741V641.741H1256.69L1259.12 635.263L1249.77 631.741ZM936.822 508.944L939.41 499.285L916.091 493.037L928.162 513.944L936.822 508.944ZM1261.19 595.859L1270.86 598.396L1273.39 588.774L1263.78 586.199L1261.19 595.859ZM985.023 631.741V641.741H1002.34L993.684 626.741L985.023 631.741ZM883.721 653.422L874.062 650.834L866.216 680.115L889.944 661.25L883.721 653.422ZM919.801 518.772L928.461 513.772L916.39 492.864L910.141 516.184L919.801 518.772ZM743.068 173.352L738.623 164.394L729.082 169.128L734.407 178.352L743.068 173.352ZM999.023 147.172L1008.68 149.76L1011.29 140.038L1001.55 137.496L999.023 147.172ZM913.097 467.851L904.437 472.851L916.508 493.759L922.756 470.44L913.097 467.851ZM1017.9 152.648L1020.95 143.123L1010.96 139.931L1008.24 150.06L1017.9 152.648ZM1217.59 308.102L1222.59 316.762L1231.56 311.584L1226.07 302.801L1217.59 308.102ZM932.082 472.938L922.422 470.35L916.174 493.67L937.082 481.599L932.082 472.938ZM941.909 489.96L936.909 481.299L916.001 493.371L939.321 499.619L941.909 489.96ZM1227.56 325.042L1236.31 320.203L1231.38 311.288L1222.56 316.381L1227.56 325.042ZM1265.67 576.71L1263.08 586.369L1273.33 589.115L1275.46 578.722L1265.67 576.71ZM725.691 182.563L734.351 177.563L729.397 168.983L720.772 173.857L725.691 182.563ZM557.422 386.937L547.929 383.793L544.598 393.853L554.834 396.596L557.422 386.937ZM896.076 477.679L893.487 487.338L916.807 493.586L904.736 472.679L896.076 477.679ZM906.032 16C637.377 16 419.59 233.787 419.59 502.442H439.59C439.59 244.833 648.423 36 906.032 36V16ZM1374.98 372.715C1318.21 167.048 1129.77 16 906.032 16V36C1120.55 36 1301.26 180.817 1355.7 378.037L1374.98 372.715ZM1372.56 382.296C1388.96 365.191 1412 354.561 1437.55 354.561V334.561C1406.33 334.561 1378.13 347.579 1358.12 368.457L1372.56 382.296ZM1437.55 354.561H1885.26V334.561H1437.55V354.561ZM1885.26 354.561C1934.97 354.561 1975.26 394.855 1975.26 444.561H1995.26C1995.26 383.809 1946.01 334.561 1885.26 334.561V354.561ZM1975.26 444.561V870.426H1995.26V444.561H1975.26ZM1975.26 870.426C1975.26 920.132 1934.97 960.426 1885.26 960.426V980.426C1946.01 980.426 1995.26 931.178 1995.26 870.426H1975.26ZM1885.26 960.426L1661.4 960.427V980.427L1885.26 980.426V960.426ZM1661.4 960.427H995.868V980.427H1661.4V960.427ZM906.032 988.884C937.374 988.884 968.034 985.918 997.742 980.249L993.993 960.604C965.515 966.038 936.11 968.884 906.032 968.884V988.884ZM772.941 970.45C815.252 982.459 859.9 988.884 906.032 988.884V968.884C861.764 968.884 818.954 962.72 778.402 951.21L772.941 970.45ZM785.672 978.869V960.83H765.672V978.869H785.672ZM20.2627 988.869H775.672V968.869H20.2627V988.869ZM10.2627 894.588V978.869H30.2627V894.588H10.2627ZM397.967 506.884C183.844 506.884 10.2627 680.465 10.2627 894.588H30.2627C30.2627 691.511 194.89 526.884 397.967 526.884V506.884ZM430.679 508.245C419.892 507.343 408.982 506.884 397.967 506.884V526.884C408.426 526.884 418.78 527.32 429.013 528.175L430.679 508.245ZM419.59 502.442C419.59 507.827 419.677 513.191 419.851 518.535L439.841 517.885C439.674 512.758 439.59 507.61 439.59 502.442H419.59ZM671.856 620.18C635.892 584.284 592.907 555.407 545.128 535.791L537.532 554.292C582.83 572.89 623.604 600.277 657.728 634.336L671.856 620.18ZM551.264 543.894C549.693 530.298 548.885 516.466 548.885 502.441H528.885C528.885 517.234 529.737 531.833 531.396 546.189L551.264 543.894ZM548.885 502.441C548.885 469.877 553.241 438.345 561.395 408.391L542.098 403.137C533.481 434.788 528.885 468.086 528.885 502.441H548.885ZM549.158 415.423L888.4 506.323L893.577 487.004L554.335 396.105L549.158 415.423ZM885.989 488.003L659.792 618.598L669.792 635.918L895.989 505.324L885.989 488.003ZM782.294 843.19C771.769 763.748 737.193 691.905 686.146 635.223L671.284 648.607C719.715 702.384 752.49 770.507 762.467 845.817L782.294 843.19ZM683.715 650.575L905.816 522.345L895.816 505.024L673.715 633.254L683.715 650.575ZM891.157 511.097L840.352 700.704L859.67 705.88L910.475 516.273L891.157 511.097ZM858.39 710.645C858.755 709.125 859.158 707.621 859.599 706.132L840.423 700.452C839.883 702.274 839.389 704.116 838.942 705.976L858.39 710.645ZM839.007 705.722L799.27 854.023L818.588 859.199L858.325 710.899L839.007 705.722ZM811.568 846.965C799.45 843.651 787.589 839.713 776.022 835.19L768.739 853.817C780.959 858.595 793.489 862.755 806.291 866.256L811.568 846.965ZM837.684 863.873L855.565 797.138L836.247 791.962L818.365 858.696L837.684 863.873ZM847.531 854.823C841.685 853.859 835.886 852.754 830.139 851.511L825.91 871.058C831.98 872.372 838.105 873.539 844.28 874.557L847.531 854.823ZM855.906 864.69V794.55H835.906V864.69H855.906ZM1007.72 641.741H1249.77V621.741H1007.72V641.741ZM1016.38 626.741L945.482 503.944L928.162 513.944L999.058 636.741L1016.38 626.741ZM934.234 518.604L1258.6 605.518L1263.78 586.199L939.41 499.285L934.234 518.604ZM1251.52 593.321C1248.4 605.207 1244.68 616.851 1240.41 628.219L1259.12 635.263C1263.64 623.254 1267.57 610.953 1270.86 598.396L1251.52 593.321ZM945.906 641.741H985.023V621.741H945.906V641.741ZM889.944 661.25C905.31 649.033 924.743 641.741 945.906 641.741V621.741C920.062 621.741 896.274 630.666 877.498 645.595L889.944 661.25ZM893.38 656.011L929.46 521.36L910.141 516.184L874.062 650.834L893.38 656.011ZM911.14 523.772L976.363 636.741L993.684 626.741L928.461 513.772L911.14 523.772ZM906.033 125.293C845.926 125.293 789.076 139.361 738.623 164.394L747.512 182.31C795.264 158.618 849.078 145.293 906.033 145.293V125.293ZM1001.55 137.496C971.032 129.531 939.02 125.293 906.033 125.293V145.293C937.301 145.293 967.616 149.309 996.497 156.848L1001.55 137.496ZM922.756 470.44L1008.68 149.76L989.363 144.584L903.438 465.263L922.756 470.44ZM734.407 178.352L904.437 472.851L921.757 462.851L751.728 168.352L734.407 178.352ZM1014.86 162.174C1096.1 188.136 1164.73 242.407 1209.11 313.402L1226.07 302.801C1179.22 227.86 1106.78 170.55 1020.95 143.123L1014.86 162.174ZM941.741 475.527L1027.56 155.236L1008.24 150.06L922.422 470.35L941.741 475.527ZM1212.59 299.442L927.082 464.278L937.082 481.599L1222.59 316.762L1212.59 299.442ZM946.909 498.62L1232.56 333.702L1222.56 316.381L936.909 481.299L946.909 498.62ZM1268.25 567.051L944.497 480.3L939.321 499.619L1263.08 586.369L1268.25 567.051ZM1263.18 502.441C1263.18 527.205 1260.66 551.37 1255.87 574.698L1275.46 578.722C1280.52 554.078 1283.18 528.565 1283.18 502.441H1263.18ZM1218.8 329.88C1247.08 381.021 1263.18 439.836 1263.18 502.441H1283.18C1283.18 436.366 1266.18 374.231 1236.31 320.203L1218.8 329.88ZM720.772 173.857C639.912 219.542 577.594 294.214 547.929 383.793L566.915 390.08C594.997 305.282 654.016 234.545 730.61 191.27L720.772 173.857ZM904.736 472.679L734.351 177.563L717.03 187.563L887.415 482.679L904.736 472.679ZM554.834 396.596L893.487 487.338L898.664 468.019L560.01 377.277L554.834 396.596Z" fill="#FFF8F1" mask="url(#path-1-outside-1_669_22534)"/>
</g>
<defs>
<filter id="filter0_d_669_22534" x="0.262695" y="0" width="2005" height="992.884" filterUnits="userSpaceOnUse" color-interpolation-filters="sRGB">
<feFlood flood-opacity="0" result="BackgroundImageFix"/>
<feColorMatrix in="SourceAlpha" type="matrix" values="0 0 0 0 0 0 0 0 0 0 0 0 0 0 0 0 0 0 127 0" result="hardAlpha"/>
<feMorphology radius="10" operator="dilate" in="SourceAlpha" result="effect1_dropShadow_669_22534"/>
<feOffset dy="-6"/>
<feComposite in2="hardAlpha" operator="out"/>
<feColorMatrix type="matrix" values="0 0 0 0 0.988235 0 0 0 0 0.952941 0 0 0 0 0.917647 0 0 0 1 0"/>
<feBlend mode="normal" in2="BackgroundImageFix" result="effect1_dropShadow_669_22534"/>
<feBlend mode="normal" in="SourceGraphic" in2="effect1_dropShadow_669_22534" result="shape"/>
</filter>
</defs>
</svg>
