<svg width="470" height="920" viewBox="0 0 470 920" fill="none" xmlns="http://www.w3.org/2000/svg">
<g filter="url(#filter0_d_669_22531)">
<mask id="path-1-outside-1_669_22531" maskUnits="userSpaceOnUse" x="15.0005" y="24.0476" width="440" height="890" fill="black">
<rect fill="white" x="15.0005" y="24.0476" width="440" height="890"/>
<path fill-rule="evenodd" clip-rule="evenodd" d="M30.0005 899V802.722H99.4544C79.9113 743.494 81.7002 697.463 89.9348 652.456C88.9009 636.875 88.5138 621.1 88.1167 604.916C87.6143 584.445 87.0959 563.319 85.2322 541.103C82.5892 509.599 75.2611 478.279 67.6641 445.81C50.7732 373.618 32.5533 295.747 61.5454 197.551C75.3119 282.815 98.1479 331.322 118.858 375.314L118.861 375.318C120.437 378.668 122.002 381.991 123.549 385.302C124.504 309.65 128.768 228.434 169.86 139.428C163.792 234.478 173.089 292.499 181.521 345.119L181.521 345.119C186.917 378.795 191.959 410.259 192.392 447.803C197.535 404.122 199.245 357.392 191.201 289.971C177.611 176.06 208.328 90.559 225.386 62.0476C242.472 126.535 269.724 240.402 284.237 331.509C286.714 325.622 289.193 319.867 291.657 314.147L291.658 314.146C315.073 259.797 337.094 208.683 342.484 78.1965C396.848 238.224 381.233 297.968 347.921 425.423C346.156 432.177 344.341 439.121 342.484 446.28C334.995 475.154 331.595 504.103 330.36 533.051C340.612 516.23 350.718 500.969 359.738 487.348L359.855 487.171C406.459 416.792 413.629 239.808 413.629 239.808C413.629 239.808 455.614 382.706 433.632 476.86C421.483 528.899 401.321 575.844 383.597 617.115C369.253 650.515 356.505 680.198 350.892 705.855C343.043 741.735 341.259 779.223 341.425 802.722H398.652L410.595 899H30.0005Z"/>
</mask>
<path fill-rule="evenodd" clip-rule="evenodd" d="M30.0005 899V802.722H99.4544C79.9113 743.494 81.7002 697.463 89.9348 652.456C88.9009 636.875 88.5138 621.1 88.1167 604.916C87.6143 584.445 87.0959 563.319 85.2322 541.103C82.5892 509.599 75.2611 478.279 67.6641 445.81C50.7732 373.618 32.5533 295.747 61.5454 197.551C75.3119 282.815 98.1479 331.322 118.858 375.314L118.861 375.318C120.437 378.668 122.002 381.991 123.549 385.302C124.504 309.65 128.768 228.434 169.86 139.428C163.792 234.478 173.089 292.499 181.521 345.119L181.521 345.119C186.917 378.795 191.959 410.259 192.392 447.803C197.535 404.122 199.245 357.392 191.201 289.971C177.611 176.06 208.328 90.559 225.386 62.0476C242.472 126.535 269.724 240.402 284.237 331.509C286.714 325.622 289.193 319.867 291.657 314.147L291.658 314.146C315.073 259.797 337.094 208.683 342.484 78.1965C396.848 238.224 381.233 297.968 347.921 425.423C346.156 432.177 344.341 439.121 342.484 446.28C334.995 475.154 331.595 504.103 330.36 533.051C340.612 516.23 350.718 500.969 359.738 487.348L359.855 487.171C406.459 416.792 413.629 239.808 413.629 239.808C413.629 239.808 455.614 382.706 433.632 476.86C421.483 528.899 401.321 575.844 383.597 617.115C369.253 650.515 356.505 680.198 350.892 705.855C343.043 741.735 341.259 779.223 341.425 802.722H398.652L410.595 899H30.0005Z" fill="black"/>
<path d="M30.0005 899H15.1885V913.812H30.0005V899ZM30.0005 802.722V787.91H15.1885V802.722H30.0005ZM99.4544 802.722V817.534H119.939L113.52 798.081L99.4544 802.722ZM89.9348 652.456L104.505 655.122L104.836 653.312L104.714 651.475L89.9348 652.456ZM88.1167 604.916L73.3092 605.279L88.1167 604.916ZM85.2322 541.103L70.4721 542.341L85.2322 541.103ZM67.6641 445.81L53.2417 449.184L67.6641 445.81ZM61.5454 197.551L76.168 195.19L47.3397 193.357L61.5454 197.551ZM118.858 375.314L132.261 369.007L132.26 369.005L118.858 375.314ZM118.861 375.318L105.459 381.625L105.46 381.627L118.861 375.318ZM123.549 385.302L110.13 391.572L138.36 385.489L123.549 385.302ZM169.86 139.428L184.641 140.371L156.412 133.219L169.86 139.428ZM181.521 345.119L166.896 347.462L166.903 347.508L166.911 347.554L181.521 345.119ZM181.521 345.119L196.146 342.775L196.139 342.73L196.131 342.684L181.521 345.119ZM192.392 447.803L177.581 447.974L207.102 449.535L192.392 447.803ZM191.201 289.971L176.493 291.726L191.201 289.971ZM225.386 62.0476L239.704 58.2541L230.708 24.3012L212.675 54.4431L225.386 62.0476ZM284.237 331.509L269.609 333.839L277.77 385.069L297.889 337.253L284.237 331.509ZM291.657 314.147L278.094 308.193L278.074 308.24L278.054 308.287L291.657 314.147ZM291.658 314.146L305.22 320.1L305.241 320.053L305.261 320.006L291.658 314.146ZM342.484 78.1965L356.509 73.4321L327.685 77.5851L342.484 78.1965ZM347.921 425.423L333.59 421.677L347.921 425.423ZM342.484 446.28L328.146 442.562V442.562L342.484 446.28ZM330.36 533.051L315.561 532.419L343.008 540.759L330.36 533.051ZM359.738 487.348L372.088 495.526L372.088 495.526L359.738 487.348ZM359.855 487.171L347.505 478.993L347.505 478.994L359.855 487.171ZM413.629 239.808L427.841 235.632L398.83 239.208L413.629 239.808ZM433.632 476.86L419.208 473.492L433.632 476.86ZM383.597 617.115L397.207 622.96L383.597 617.115ZM350.892 705.855L365.362 709.02L350.892 705.855ZM341.425 802.722L326.613 802.827L326.717 817.534H341.425V802.722ZM398.652 802.722L413.352 800.899L411.741 787.91H398.652V802.722ZM410.595 899V913.812H427.358L425.294 897.177L410.595 899ZM44.8124 899V802.722H15.1885V899H44.8124ZM99.4544 787.91H30.0005V817.534H99.4544V787.91ZM75.3647 649.79C66.7983 696.611 64.8907 745.242 85.3884 807.364L113.52 798.081C94.932 741.746 96.6021 698.315 104.505 655.122L75.3647 649.79ZM73.3092 605.279C73.7049 621.407 74.0975 637.495 75.1553 653.437L104.714 651.475C103.704 636.256 103.323 620.793 102.924 604.553L73.3092 605.279ZM70.4721 542.341C72.2937 564.055 72.8055 584.756 73.3092 605.279L102.924 604.553C102.423 584.133 101.898 562.583 99.9923 539.865L70.4721 542.341ZM53.2417 449.184C60.8859 481.855 67.9356 512.106 70.4721 542.341L99.9923 539.865C97.2429 507.092 89.6363 474.703 82.0865 442.435L53.2417 449.184ZM47.3397 193.357C17.1417 295.638 36.3385 376.941 53.2417 449.184L82.0865 442.435C65.2078 370.296 47.965 295.857 75.7511 201.745L47.3397 193.357ZM132.26 369.005C111.746 325.432 89.6039 278.406 76.168 195.19L46.9228 199.912C61.02 287.223 84.5493 337.211 105.457 381.623L132.26 369.005ZM132.263 369.012L132.261 369.007L105.456 381.621L105.459 381.625L132.263 369.012ZM136.968 379.032C135.411 375.698 133.837 372.355 132.262 369.009L105.46 381.627C107.038 384.98 108.593 388.284 110.13 391.572L136.968 379.032ZM156.412 133.219C113.958 225.176 109.699 309.004 108.738 385.115L138.36 385.489C139.309 310.296 143.578 231.692 183.308 145.636L156.412 133.219ZM196.146 342.775C187.775 290.531 178.679 233.784 184.641 140.371L155.078 138.484C148.906 235.173 158.404 294.467 166.896 347.462L196.146 342.775ZM196.131 342.684L196.131 342.684L166.911 347.554L166.911 347.554L196.131 342.684ZM207.203 447.632C206.756 408.855 201.532 376.385 196.146 342.775L166.896 347.462C172.303 381.205 177.162 411.664 177.581 447.974L207.203 447.632ZM176.493 291.726C184.391 357.924 182.696 403.482 177.682 446.071L207.102 449.535C212.374 404.762 214.098 356.86 205.908 288.216L176.493 291.726ZM212.675 54.4431C193.871 85.874 162.53 174.685 176.493 291.726L205.908 288.216C192.692 177.434 222.786 95.2439 238.097 69.6522L212.675 54.4431ZM298.864 329.178C284.239 237.366 256.846 122.956 239.704 58.2541L211.068 65.8411C228.097 130.114 255.209 243.439 269.609 333.839L298.864 329.178ZM278.054 308.287C275.594 313.997 273.089 319.809 270.584 325.764L297.889 337.253C300.338 331.434 302.792 325.736 305.26 320.008L278.054 308.287ZM278.095 308.191L278.094 308.193L305.219 320.102L305.22 320.1L278.095 308.191ZM327.685 77.5851C322.388 205.805 300.961 255.117 278.055 308.285L305.261 320.006C329.184 264.477 351.8 211.561 357.284 78.8078L327.685 77.5851ZM362.252 429.168C378.812 365.806 391.565 317.294 392.888 264.395C394.22 211.152 384.007 154.376 356.509 73.4321L328.46 82.9608C355.326 162.045 364.487 215.155 363.274 263.654C362.052 312.497 350.342 357.585 333.59 421.677L362.252 429.168ZM356.822 449.999C358.674 442.855 360.486 435.924 362.252 429.168L333.59 421.677C331.826 428.43 330.007 435.387 328.146 442.562L356.822 449.999ZM345.158 533.682C346.362 505.462 349.663 477.598 356.822 449.999L328.146 442.562C320.327 472.711 316.827 502.745 315.561 532.419L345.158 533.682ZM347.388 479.17C338.381 492.772 328.129 508.252 317.712 525.342L343.008 540.759C353.095 524.209 363.055 509.167 372.088 495.526L347.388 479.17ZM347.505 478.994L347.388 479.17L372.088 495.526L372.205 495.349L347.505 478.994ZM413.629 239.808C398.83 239.208 398.83 239.207 398.83 239.206C398.83 239.207 398.83 239.207 398.83 239.209C398.829 239.212 398.829 239.218 398.829 239.226C398.828 239.243 398.827 239.27 398.825 239.308C398.822 239.383 398.817 239.501 398.81 239.659C398.796 239.976 398.774 240.457 398.743 241.093C398.681 242.364 398.584 244.255 398.443 246.697C398.161 251.581 397.706 258.663 397.015 267.392C395.632 284.865 393.31 308.862 389.557 334.992C385.799 361.159 380.639 389.233 373.629 414.931C366.56 440.844 357.874 463.336 347.505 478.993L372.204 495.349C385.138 475.818 394.825 449.794 402.208 422.728C409.65 395.448 415.02 366.08 418.88 339.203C422.746 312.289 425.129 287.641 426.547 269.73C427.256 260.767 427.725 253.472 428.018 248.403C428.164 245.868 428.266 243.888 428.332 242.532C428.365 241.854 428.389 241.333 428.405 240.976C428.413 240.797 428.419 240.66 428.423 240.565C428.425 240.517 428.426 240.48 428.427 240.454C428.428 240.441 428.428 240.43 428.429 240.422C428.429 240.419 428.429 240.415 428.429 240.413C428.429 240.41 428.429 240.407 413.629 239.808ZM448.056 480.227C459.737 430.193 454.305 368.53 446.493 320.641C442.545 296.444 437.901 275.266 434.244 260.128C432.413 252.553 430.826 246.475 429.69 242.269C429.122 240.166 428.667 238.531 428.35 237.409C428.191 236.848 428.068 236.416 427.982 236.118C427.939 235.969 427.905 235.853 427.882 235.772C427.87 235.732 427.86 235.7 427.854 235.676C427.85 235.665 427.847 235.655 427.845 235.648C427.844 235.644 427.843 235.64 427.842 235.638C427.842 235.635 427.841 235.632 413.629 239.808C399.418 243.983 399.418 243.981 399.417 243.98C399.417 243.981 399.417 243.98 399.417 243.981C399.418 243.982 399.419 243.986 399.421 243.991C399.424 244.003 399.43 244.023 399.438 244.051C399.455 244.108 399.481 244.199 399.517 244.323C399.588 244.572 399.698 244.953 399.841 245.462C400.129 246.48 400.554 248.006 401.091 249.994C402.165 253.971 403.686 259.793 405.448 267.086C408.976 281.683 413.454 302.114 417.255 325.411C424.939 372.51 429.508 429.373 419.208 473.492L448.056 480.227ZM397.207 622.96C414.877 581.816 435.566 533.725 448.056 480.227L419.208 473.492C407.399 524.072 387.765 569.873 369.987 611.27L397.207 622.96ZM365.362 709.02C370.606 685.048 382.667 656.815 397.207 622.96L369.987 611.27C355.838 644.215 342.403 675.348 336.422 702.69L365.362 709.02ZM356.236 802.618C356.075 779.771 357.828 743.464 365.362 709.02L336.422 702.69C328.259 740.007 326.442 778.675 326.613 802.827L356.236 802.618ZM398.652 787.91H341.425V817.534H398.652V787.91ZM425.294 897.177L413.352 800.899L383.953 804.546L395.896 900.823L425.294 897.177ZM30.0005 913.812H410.595V884.188H30.0005V913.812Z" fill="#FFF8F1" mask="url(#path-1-outside-1_669_22531)"/>
</g>
<defs>
<filter id="filter0_d_669_22531" x="0.37653" y="0.602154" width="469.246" height="919.135" filterUnits="userSpaceOnUse" color-interpolation-filters="sRGB">
<feFlood flood-opacity="0" result="BackgroundImageFix"/>
<feColorMatrix in="SourceAlpha" type="matrix" values="0 0 0 0 0 0 0 0 0 0 0 0 0 0 0 0 0 0 127 0" result="hardAlpha"/>
<feMorphology radius="14.8119" operator="dilate" in="SourceAlpha" result="effect1_dropShadow_669_22531"/>
<feOffset dy="-8.88717"/>
<feComposite in2="hardAlpha" operator="out"/>
<feColorMatrix type="matrix" values="0 0 0 0 0.988235 0 0 0 0 0.952941 0 0 0 0 0.917647 0 0 0 1 0"/>
<feBlend mode="normal" in2="BackgroundImageFix" result="effect1_dropShadow_669_22531"/>
<feBlend mode="normal" in="SourceGraphic" in2="effect1_dropShadow_669_22531" result="shape"/>
</filter>
</defs>
</svg>
