<svg width="709" height="721" viewBox="0 0 709 721" fill="none" xmlns="http://www.w3.org/2000/svg">
<mask id="path-1-outside-1_669_22530" maskUnits="userSpaceOnUse" x="0" y="-0.950439" width="709" height="722" fill="black">
<rect fill="white" y="-0.950439" width="709" height="722"/>
<path fill-rule="evenodd" clip-rule="evenodd" d="M546.674 711H94.1498C97.8634 704.339 101.35 696.282 104.22 686.248C108.118 672.622 113.784 660.645 120.633 650.58C78.2132 651.834 39.1799 649.239 17.8745 591.98C-12.784 509.585 65.1589 454.723 132.043 440.825C131.511 440.139 130.951 439.471 130.363 438.824C117.447 424.617 101.057 425.699 85.3055 426.738C71.7825 427.63 58.7299 428.492 48.7504 419.621C27.1467 400.418 -6.45903 342.809 36.7483 270.797C68.8262 217.333 124.719 214.146 175.941 237.661C174.237 215.414 180.299 191.753 185.923 169.805L185.923 169.805L185.923 169.804C189.33 156.509 192.576 143.842 193.836 132.499C195.033 121.724 194.738 109.755 194.438 97.6341C193.538 61.1489 192.603 23.2868 232.242 12.4759C272.522 1.49065 296.043 29.6067 321.979 60.6093C330.047 70.2533 338.349 80.1767 347.461 89.2892C356.396 98.2237 365.59 105.34 374.621 112.329C401.704 133.29 427.319 153.115 440.055 217.444C453.518 212.453 465.077 204.955 472.342 191.581C503.137 134.898 582.318 149.298 625.525 221.311C643.262 250.872 661.733 262.375 675.718 271.085C695.803 283.593 706.636 290.34 692.757 336.531C675.767 393.076 640.893 391.766 611.787 390.672C595.654 390.065 581.293 389.525 572.733 398.942C567.173 405.058 561.378 412.333 555.159 420.141C553.767 421.889 552.353 423.664 550.916 425.458C554.931 423.826 558.929 422.179 562.899 420.543C617.313 398.121 666.531 377.84 682.808 428.755C698.115 476.637 667.028 514.294 635.539 548.44C648.398 557.686 658.395 571.495 663.869 590.63C682.608 656.137 644.175 694.227 623.212 704.74C613.529 709.596 603.481 706.181 593.07 702.642C580.944 698.519 568.327 694.23 555.222 702.652C551.858 704.813 549.078 707.669 546.674 711Z"/>
</mask>
<path fill-rule="evenodd" clip-rule="evenodd" d="M546.674 711H94.1498C97.8634 704.339 101.35 696.282 104.22 686.248C108.118 672.622 113.784 660.645 120.633 650.58C78.2132 651.834 39.1799 649.239 17.8745 591.98C-12.784 509.585 65.1589 454.723 132.043 440.825C131.511 440.139 130.951 439.471 130.363 438.824C117.447 424.617 101.057 425.699 85.3055 426.738C71.7825 427.63 58.7299 428.492 48.7504 419.621C27.1467 400.418 -6.45903 342.809 36.7483 270.797C68.8262 217.333 124.719 214.146 175.941 237.661C174.237 215.414 180.299 191.753 185.923 169.805L185.923 169.805L185.923 169.804C189.33 156.509 192.576 143.842 193.836 132.499C195.033 121.724 194.738 109.755 194.438 97.6341C193.538 61.1489 192.603 23.2868 232.242 12.4759C272.522 1.49065 296.043 29.6067 321.979 60.6093C330.047 70.2533 338.349 80.1767 347.461 89.2892C356.396 98.2237 365.59 105.34 374.621 112.329C401.704 133.29 427.319 153.115 440.055 217.444C453.518 212.453 465.077 204.955 472.342 191.581C503.137 134.898 582.318 149.298 625.525 221.311C643.262 250.872 661.733 262.375 675.718 271.085C695.803 283.593 706.636 290.34 692.757 336.531C675.767 393.076 640.893 391.766 611.787 390.672C595.654 390.065 581.293 389.525 572.733 398.942C567.173 405.058 561.378 412.333 555.159 420.141C553.767 421.889 552.353 423.664 550.916 425.458C554.931 423.826 558.929 422.179 562.899 420.543C617.313 398.121 666.531 377.84 682.808 428.755C698.115 476.637 667.028 514.294 635.539 548.44C648.398 557.686 658.395 571.495 663.869 590.63C682.608 656.137 644.175 694.227 623.212 704.74C613.529 709.596 603.481 706.181 593.07 702.642C580.944 698.519 568.327 694.23 555.222 702.652C551.858 704.813 549.078 707.669 546.674 711Z" fill="black"/>
<path d="M546.674 711V721H551.788L554.782 716.853L546.674 711ZM94.1498 711L85.4154 706.131L77.126 721H94.1498V711ZM104.22 686.248L113.835 688.999H113.835L104.22 686.248ZM120.633 650.58L128.901 656.205L139.923 640.005L120.337 640.584L120.633 650.58ZM17.8745 591.98L27.2467 588.493L17.8745 591.98ZM132.043 440.825L134.078 450.616L149.764 447.356L139.945 434.696L132.043 440.825ZM130.363 438.824L137.763 432.098L130.363 438.824ZM85.3055 426.738L85.964 436.716H85.964L85.3055 426.738ZM48.7504 419.621L55.3941 412.147H55.394L48.7504 419.621ZM36.7483 270.797L28.1734 265.652V265.652L36.7483 270.797ZM175.941 237.661L171.769 246.749L187.21 253.838L185.912 236.897L175.941 237.661ZM185.923 169.805L195.61 172.287L195.618 172.259L195.625 172.23L185.923 169.805ZM185.923 169.805L176.436 166.642L176.315 167.007L176.222 167.379L185.923 169.805ZM185.923 169.804L195.41 172.967L195.522 172.63L195.61 172.287L185.923 169.804ZM193.836 132.499L183.897 131.395V131.395L193.836 132.499ZM194.438 97.6341L204.435 97.3872L194.438 97.6341ZM232.242 12.4759L229.611 2.8283V2.8283L232.242 12.4759ZM321.979 60.6093L314.309 67.0259L314.309 67.0259L321.979 60.6093ZM347.461 89.2892L340.39 96.3602V96.3602L347.461 89.2892ZM374.621 112.329L368.501 120.237V120.237L374.621 112.329ZM440.055 217.444L430.246 219.386L432.526 230.901L443.532 226.82L440.055 217.444ZM472.342 191.581L481.129 196.354L472.342 191.581ZM625.525 221.311L616.95 226.456L625.525 221.311ZM675.718 271.085L670.432 279.574L675.718 271.085ZM692.757 336.531L702.334 339.409L692.757 336.531ZM611.787 390.672L611.411 400.665L611.787 390.672ZM572.733 398.942L580.132 405.668V405.668L572.733 398.942ZM555.159 420.141L547.337 413.911L547.337 413.911L555.159 420.141ZM550.916 425.458L543.11 419.207L519.106 449.183L554.682 434.722L550.916 425.458ZM562.899 420.543L559.089 411.297L562.899 420.543ZM682.808 428.755L692.333 425.71L682.808 428.755ZM635.539 548.44L628.188 541.661L620.53 549.965L629.702 556.559L635.539 548.44ZM663.869 590.63L673.483 587.88V587.88L663.869 590.63ZM623.212 704.74L627.695 713.679L623.212 704.74ZM593.07 702.642L596.289 693.174H596.289L593.07 702.642ZM555.222 702.652L560.628 711.065L555.222 702.652ZM546.674 701H94.1498V721H546.674V701ZM94.6059 683.498C91.9404 692.816 88.744 700.16 85.4154 706.131L102.884 715.869C106.983 708.517 110.76 699.747 113.835 688.999L94.6059 683.498ZM112.365 644.954C104.887 655.945 98.7815 668.901 94.6059 683.498L113.835 688.999C117.455 676.342 122.682 665.345 128.901 656.205L112.365 644.954ZM8.50228 595.467C19.9181 626.148 36.6896 643.477 57.3733 652.404C77.3581 661.029 99.7838 661.201 120.928 660.575L120.337 640.584C99.0622 641.213 80.7615 640.715 65.2984 634.041C50.5342 627.669 37.1363 615.071 27.2467 588.493L8.50228 595.467ZM130.009 431.034C95.06 438.296 56.8132 456.286 31.0667 483.896C4.87713 511.982 -8.34308 550.195 8.50228 595.467L27.2467 588.493C13.4336 551.37 23.8556 520.955 45.6939 497.536C67.9752 473.642 102.142 457.252 134.078 450.616L130.009 431.034ZM122.964 445.551C123.373 446.001 123.765 446.468 124.141 446.954L139.945 434.696C139.257 433.809 138.53 432.942 137.763 432.098L122.964 445.551ZM85.964 436.716C102.35 435.635 113.7 435.361 122.964 445.551L137.763 432.098C121.194 413.873 99.7641 415.762 84.6471 416.76L85.964 436.716ZM42.1067 427.095C55.7451 439.218 73.426 437.544 85.964 436.716L84.6471 416.76C70.1389 417.717 61.7147 417.765 55.3941 412.147L42.1067 427.095ZM28.1734 265.652C-18.0689 342.722 17.7907 405.481 42.1068 427.095L55.394 412.147C36.5027 395.355 5.15086 342.896 45.3233 275.942L28.1734 265.652ZM180.113 228.573C153.212 216.223 124.303 210.51 97.3351 215.531C70.0264 220.615 45.6285 236.56 28.1734 265.652L45.3233 275.942C59.946 251.57 79.5333 239.189 100.996 235.193C122.799 231.133 147.448 235.584 171.769 246.749L180.113 228.573ZM176.236 167.323C170.706 188.905 164.117 214.229 165.97 238.425L185.912 236.897C184.357 216.598 189.893 194.6 195.61 172.287L176.236 167.323ZM176.222 167.379L176.222 167.38L195.625 172.23L195.625 172.23L176.222 167.379ZM176.437 166.642L176.436 166.642L195.41 172.967L195.41 172.967L176.437 166.642ZM183.897 131.395C182.73 141.9 179.692 153.836 176.236 167.322L195.61 172.287C198.968 159.182 202.421 145.785 203.775 133.603L183.897 131.395ZM184.442 97.8809C184.745 110.168 185.005 121.422 183.897 131.395L203.775 133.603C205.061 122.026 204.731 109.342 204.435 97.3872L184.442 97.8809ZM229.611 2.8283C218.199 5.94088 209.182 11.1648 202.309 18.2482C195.471 25.2959 191.209 33.7126 188.559 42.5563C183.402 59.7641 184.002 80.0875 184.442 97.8809L204.435 97.3872C203.974 78.6955 203.657 61.8453 207.717 48.298C209.675 41.7642 212.556 36.4081 216.663 32.1758C220.735 27.9794 226.466 24.4164 234.874 22.1236L229.611 2.8283ZM329.649 54.1928C316.933 38.993 303.641 22.9821 288.074 12.5019C271.817 1.55738 252.9 -3.5232 229.611 2.8283L234.874 22.1236C251.864 17.4898 264.847 20.9746 276.905 29.0924C289.652 37.6746 301.089 51.223 314.309 67.0259L329.649 54.1928ZM354.533 82.2182C345.786 73.4715 337.764 63.8925 329.649 54.1928L314.309 67.0259C322.331 76.6142 330.912 86.8818 340.39 96.3602L354.533 82.2182ZM380.742 104.421C371.66 97.3923 362.954 90.6397 354.533 82.2181L340.39 96.3602C349.838 105.808 359.52 113.287 368.501 120.237L380.742 104.421ZM449.865 215.502C443.278 182.232 433.21 159.764 420.8 142.734C408.474 125.819 394.205 114.841 380.742 104.421L368.501 120.237C382.121 130.778 394.201 140.193 404.637 154.513C414.988 168.718 424.097 188.327 430.246 219.386L449.865 215.502ZM463.556 186.807C457.841 197.326 448.694 203.576 436.579 208.068L443.532 226.82C458.341 221.33 472.313 212.583 481.129 196.354L463.556 186.807ZM634.1 216.166C611.338 178.229 578.531 154.511 546.145 148.361C513.264 142.116 481.232 154.27 463.556 186.807L481.129 196.354C494.247 172.209 517.203 163.222 542.413 168.01C568.118 172.891 596.505 192.381 616.95 226.456L634.1 216.166ZM681.005 262.597C667.506 254.19 650.624 243.706 634.1 216.166L616.95 226.456C635.899 258.038 655.96 270.561 670.432 279.574L681.005 262.597ZM702.334 339.409C709.325 316.14 711.098 299.995 706.303 287.575C701.399 274.874 690.358 268.422 681.005 262.597L670.432 279.574C681.162 286.256 685.58 289.431 687.645 294.779C689.818 300.407 690.067 310.731 683.18 333.653L702.334 339.409ZM611.411 400.665C625.553 401.196 643.978 402.061 660.965 394.315C678.735 386.211 693.248 369.648 702.334 339.409L683.18 333.653C675.276 359.959 663.857 371.014 652.666 376.118C640.691 381.578 627.126 381.241 612.162 380.679L611.411 400.665ZM580.132 405.668C582.292 403.293 585.486 401.722 590.852 400.945C596.45 400.135 603.095 400.352 611.411 400.665L612.162 380.679C604.346 380.385 595.743 380.029 587.988 381.151C580 382.307 571.734 385.174 565.333 392.215L580.132 405.668ZM562.981 426.371C569.255 418.494 574.835 411.495 580.132 405.668L565.333 392.215C559.51 398.621 553.501 406.172 547.337 413.911L562.981 426.371ZM558.722 431.709C560.168 429.903 561.59 428.118 562.981 426.371L547.337 413.911C545.943 415.66 544.538 417.425 543.11 419.207L558.722 431.709ZM559.089 411.297C555.116 412.935 551.14 414.573 547.15 416.194L554.682 434.722C558.722 433.08 562.742 431.423 566.709 429.789L559.089 411.297ZM692.333 425.71C687.753 411.383 680.443 400.87 670.206 394.39C660.06 387.967 648.327 386.325 636.443 387.173C613.327 388.823 585.714 400.326 559.089 411.297L566.709 429.789C594.499 418.338 618.702 408.49 637.867 407.123C647.124 406.462 654.149 407.895 659.509 411.289C664.779 414.625 669.725 420.671 673.283 431.801L692.333 425.71ZM642.891 555.219C673.755 521.75 709.633 479.824 692.333 425.71L673.283 431.801C686.598 473.45 660.3 506.838 628.188 541.661L642.891 555.219ZM673.483 587.88C667.441 566.759 656.208 550.984 641.377 540.321L629.702 556.559C640.589 564.387 649.349 576.232 654.255 593.38L673.483 587.88ZM627.695 713.679C651.902 701.539 693.845 659.059 673.483 587.88L654.255 593.38C671.371 653.216 636.448 686.915 618.729 695.801L627.695 713.679ZM589.852 712.109C599.327 715.331 613.636 720.73 627.695 713.679L618.729 695.801C613.422 698.463 607.634 697.03 596.289 693.174L589.852 712.109ZM560.628 711.065C569.166 705.578 577.124 707.783 589.852 712.109L596.289 693.174C584.765 689.256 567.488 682.882 549.816 694.239L560.628 711.065ZM554.782 716.853C556.634 714.287 558.549 712.401 560.628 711.065L549.816 694.239C545.168 697.226 541.522 701.052 538.565 705.147L554.782 716.853Z" fill="#FFF8F1" mask="url(#path-1-outside-1_669_22530)"/>
</svg>
